<svg width="34" height="34" viewBox="0 0 34 34" fill="none" xmlns="http://www.w3.org/2000/svg">
<path d="M28.6666 0.334473H5.33325C2.5826 0.334473 0.333252 2.58464 0.333252 5.33447V28.6678C0.333252 31.4176 2.5826 33.6678 5.33325 33.6678H28.6666C31.4172 33.6678 33.6666 31.4176 33.6666 28.6678V5.33447C33.6666 2.58464 31.4172 0.334473 28.6666 0.334473ZM24.4332 14.0177L16.0999 22.3511C15.7662 22.6676 15.3495 22.8345 14.9166 22.8345C14.4836 22.8345 14.067 22.6676 13.7333 22.3511L9.56665 18.1844C8.91724 17.5342 8.91724 16.4681 9.56665 15.8179C10.2161 15.1676 11.2838 15.1676 11.9332 15.8179L14.9166 18.8175L22.0667 11.6512C22.7161 11.001 23.7838 11.001 24.4332 11.6512C25.0826 12.3014 25.0826 13.3675 24.4332 14.0177Z" fill="#FFB536"/>
</svg>
